G04 EAGLE Gerber RS-274X export*
G75*
%MOMM*%
%FSLAX34Y34*%
%LPD*%
%INSilkscreen Top*%
%IPPOS*%
%AMOC8*
5,1,8,0,0,1.08239X$1,22.5*%
G01*
%ADD10C,0.076200*%
%ADD11C,0.200000*%
%ADD12C,0.400000*%
%ADD13C,0.101600*%
%ADD14C,0.200000*%
%ADD15C,0.152400*%
%ADD16C,0.508000*%


D10*
X42818Y185661D02*
X40729Y185661D01*
X40640Y185663D01*
X40552Y185669D01*
X40464Y185678D01*
X40376Y185691D01*
X40289Y185708D01*
X40203Y185728D01*
X40118Y185753D01*
X40033Y185780D01*
X39950Y185812D01*
X39869Y185846D01*
X39789Y185885D01*
X39711Y185926D01*
X39634Y185971D01*
X39560Y186019D01*
X39487Y186070D01*
X39417Y186124D01*
X39350Y186182D01*
X39284Y186242D01*
X39222Y186304D01*
X39162Y186370D01*
X39104Y186437D01*
X39050Y186507D01*
X38999Y186580D01*
X38951Y186654D01*
X38906Y186731D01*
X38865Y186809D01*
X38826Y186889D01*
X38792Y186970D01*
X38760Y187053D01*
X38733Y187138D01*
X38708Y187223D01*
X38688Y187309D01*
X38671Y187396D01*
X38658Y187484D01*
X38649Y187572D01*
X38643Y187660D01*
X38641Y187749D01*
X38641Y192971D01*
X38643Y193062D01*
X38649Y193153D01*
X38659Y193244D01*
X38673Y193334D01*
X38690Y193423D01*
X38712Y193511D01*
X38738Y193599D01*
X38767Y193685D01*
X38800Y193770D01*
X38837Y193853D01*
X38877Y193935D01*
X38921Y194015D01*
X38968Y194093D01*
X39019Y194169D01*
X39072Y194242D01*
X39129Y194313D01*
X39190Y194382D01*
X39253Y194447D01*
X39318Y194510D01*
X39387Y194570D01*
X39458Y194628D01*
X39531Y194681D01*
X39607Y194732D01*
X39685Y194779D01*
X39765Y194823D01*
X39847Y194863D01*
X39930Y194900D01*
X40015Y194933D01*
X40101Y194962D01*
X40189Y194988D01*
X40277Y195010D01*
X40366Y195027D01*
X40456Y195041D01*
X40547Y195051D01*
X40638Y195057D01*
X40729Y195059D01*
X42818Y195059D01*
X46287Y192971D02*
X48897Y195059D01*
X48897Y185661D01*
X46287Y185661D02*
X51508Y185661D01*
X77601Y20541D02*
X79689Y20541D01*
X77601Y20541D02*
X77512Y20543D01*
X77424Y20549D01*
X77336Y20558D01*
X77248Y20571D01*
X77161Y20588D01*
X77075Y20608D01*
X76990Y20633D01*
X76905Y20660D01*
X76822Y20692D01*
X76741Y20726D01*
X76661Y20765D01*
X76583Y20806D01*
X76506Y20851D01*
X76432Y20899D01*
X76359Y20950D01*
X76289Y21004D01*
X76222Y21062D01*
X76156Y21122D01*
X76094Y21184D01*
X76034Y21250D01*
X75976Y21317D01*
X75922Y21387D01*
X75871Y21460D01*
X75823Y21534D01*
X75778Y21611D01*
X75737Y21689D01*
X75698Y21769D01*
X75664Y21850D01*
X75632Y21933D01*
X75605Y22018D01*
X75580Y22103D01*
X75560Y22189D01*
X75543Y22276D01*
X75530Y22364D01*
X75521Y22452D01*
X75515Y22540D01*
X75513Y22629D01*
X75512Y22629D02*
X75512Y27851D01*
X75513Y27851D02*
X75515Y27942D01*
X75521Y28033D01*
X75531Y28124D01*
X75545Y28214D01*
X75562Y28303D01*
X75584Y28391D01*
X75610Y28479D01*
X75639Y28565D01*
X75672Y28650D01*
X75709Y28733D01*
X75749Y28815D01*
X75793Y28895D01*
X75840Y28973D01*
X75891Y29049D01*
X75944Y29122D01*
X76001Y29193D01*
X76062Y29262D01*
X76125Y29327D01*
X76190Y29390D01*
X76259Y29450D01*
X76330Y29508D01*
X76403Y29561D01*
X76479Y29612D01*
X76557Y29659D01*
X76637Y29703D01*
X76719Y29743D01*
X76802Y29780D01*
X76887Y29813D01*
X76973Y29842D01*
X77061Y29868D01*
X77149Y29890D01*
X77238Y29907D01*
X77328Y29921D01*
X77419Y29931D01*
X77510Y29937D01*
X77601Y29939D01*
X79689Y29939D01*
X86030Y29940D02*
X86125Y29938D01*
X86219Y29932D01*
X86313Y29923D01*
X86407Y29910D01*
X86500Y29893D01*
X86592Y29872D01*
X86684Y29847D01*
X86774Y29819D01*
X86863Y29787D01*
X86951Y29752D01*
X87037Y29713D01*
X87122Y29671D01*
X87205Y29625D01*
X87286Y29576D01*
X87365Y29524D01*
X87442Y29469D01*
X87516Y29410D01*
X87588Y29349D01*
X87658Y29285D01*
X87725Y29218D01*
X87789Y29148D01*
X87850Y29076D01*
X87909Y29002D01*
X87964Y28925D01*
X88016Y28846D01*
X88065Y28765D01*
X88111Y28682D01*
X88153Y28597D01*
X88192Y28511D01*
X88227Y28423D01*
X88259Y28334D01*
X88287Y28244D01*
X88312Y28152D01*
X88333Y28060D01*
X88350Y27967D01*
X88363Y27873D01*
X88372Y27779D01*
X88378Y27685D01*
X88380Y27590D01*
X86030Y29939D02*
X85922Y29937D01*
X85813Y29931D01*
X85705Y29921D01*
X85598Y29908D01*
X85491Y29890D01*
X85384Y29869D01*
X85279Y29844D01*
X85174Y29815D01*
X85071Y29783D01*
X84969Y29746D01*
X84868Y29706D01*
X84769Y29663D01*
X84671Y29616D01*
X84575Y29565D01*
X84481Y29511D01*
X84389Y29454D01*
X84299Y29393D01*
X84211Y29329D01*
X84126Y29263D01*
X84043Y29193D01*
X83963Y29120D01*
X83885Y29044D01*
X83810Y28966D01*
X83738Y28885D01*
X83669Y28801D01*
X83603Y28715D01*
X83540Y28627D01*
X83481Y28536D01*
X83424Y28444D01*
X83371Y28349D01*
X83322Y28253D01*
X83276Y28154D01*
X83233Y28055D01*
X83194Y27953D01*
X83159Y27851D01*
X87596Y25762D02*
X87665Y25831D01*
X87731Y25902D01*
X87795Y25975D01*
X87856Y26051D01*
X87914Y26130D01*
X87968Y26210D01*
X88020Y26293D01*
X88068Y26377D01*
X88114Y26463D01*
X88155Y26551D01*
X88194Y26641D01*
X88229Y26732D01*
X88260Y26824D01*
X88288Y26917D01*
X88312Y27011D01*
X88332Y27106D01*
X88349Y27202D01*
X88362Y27299D01*
X88371Y27396D01*
X88377Y27493D01*
X88379Y27590D01*
X87596Y25762D02*
X83158Y20541D01*
X88379Y20541D01*
X161701Y163101D02*
X163789Y163101D01*
X161701Y163101D02*
X161612Y163103D01*
X161524Y163109D01*
X161436Y163118D01*
X161348Y163131D01*
X161261Y163148D01*
X161175Y163168D01*
X161090Y163193D01*
X161005Y163220D01*
X160922Y163252D01*
X160841Y163286D01*
X160761Y163325D01*
X160683Y163366D01*
X160606Y163411D01*
X160532Y163459D01*
X160459Y163510D01*
X160389Y163564D01*
X160322Y163622D01*
X160256Y163682D01*
X160194Y163744D01*
X160134Y163810D01*
X160076Y163877D01*
X160022Y163947D01*
X159971Y164020D01*
X159923Y164094D01*
X159878Y164171D01*
X159837Y164249D01*
X159798Y164329D01*
X159764Y164410D01*
X159732Y164493D01*
X159705Y164578D01*
X159680Y164663D01*
X159660Y164749D01*
X159643Y164836D01*
X159630Y164924D01*
X159621Y165012D01*
X159615Y165100D01*
X159613Y165189D01*
X159612Y165189D02*
X159612Y170411D01*
X159613Y170411D02*
X159615Y170502D01*
X159621Y170593D01*
X159631Y170684D01*
X159645Y170774D01*
X159662Y170863D01*
X159684Y170951D01*
X159710Y171039D01*
X159739Y171125D01*
X159772Y171210D01*
X159809Y171293D01*
X159849Y171375D01*
X159893Y171455D01*
X159940Y171533D01*
X159991Y171609D01*
X160044Y171682D01*
X160101Y171753D01*
X160162Y171822D01*
X160225Y171887D01*
X160290Y171950D01*
X160359Y172010D01*
X160430Y172068D01*
X160503Y172121D01*
X160579Y172172D01*
X160657Y172219D01*
X160737Y172263D01*
X160819Y172303D01*
X160902Y172340D01*
X160987Y172373D01*
X161073Y172402D01*
X161161Y172428D01*
X161249Y172450D01*
X161338Y172467D01*
X161428Y172481D01*
X161519Y172491D01*
X161610Y172497D01*
X161701Y172499D01*
X163789Y172499D01*
X167258Y163101D02*
X169868Y163101D01*
X169969Y163103D01*
X170070Y163109D01*
X170171Y163119D01*
X170271Y163132D01*
X170371Y163150D01*
X170470Y163171D01*
X170568Y163197D01*
X170665Y163226D01*
X170761Y163258D01*
X170855Y163295D01*
X170948Y163335D01*
X171040Y163379D01*
X171129Y163426D01*
X171217Y163477D01*
X171303Y163531D01*
X171386Y163588D01*
X171468Y163648D01*
X171546Y163712D01*
X171623Y163778D01*
X171696Y163848D01*
X171767Y163920D01*
X171835Y163995D01*
X171900Y164073D01*
X171962Y164153D01*
X172021Y164235D01*
X172077Y164320D01*
X172129Y164406D01*
X172178Y164495D01*
X172224Y164586D01*
X172265Y164678D01*
X172304Y164772D01*
X172338Y164867D01*
X172369Y164963D01*
X172396Y165061D01*
X172420Y165159D01*
X172439Y165259D01*
X172455Y165359D01*
X172467Y165459D01*
X172475Y165560D01*
X172479Y165661D01*
X172479Y165763D01*
X172475Y165864D01*
X172467Y165965D01*
X172455Y166065D01*
X172439Y166165D01*
X172420Y166265D01*
X172396Y166363D01*
X172369Y166461D01*
X172338Y166557D01*
X172304Y166652D01*
X172265Y166746D01*
X172224Y166838D01*
X172178Y166929D01*
X172129Y167017D01*
X172077Y167104D01*
X172021Y167189D01*
X171962Y167271D01*
X171900Y167351D01*
X171835Y167429D01*
X171767Y167504D01*
X171696Y167576D01*
X171623Y167646D01*
X171546Y167712D01*
X171468Y167776D01*
X171386Y167836D01*
X171303Y167893D01*
X171217Y167947D01*
X171129Y167998D01*
X171040Y168045D01*
X170948Y168089D01*
X170855Y168129D01*
X170761Y168166D01*
X170665Y168198D01*
X170568Y168227D01*
X170470Y168253D01*
X170371Y168274D01*
X170271Y168292D01*
X170171Y168305D01*
X170070Y168315D01*
X169969Y168321D01*
X169868Y168323D01*
X170391Y172499D02*
X167258Y172499D01*
X170391Y172499D02*
X170481Y172497D01*
X170570Y172491D01*
X170660Y172482D01*
X170749Y172468D01*
X170837Y172451D01*
X170924Y172430D01*
X171011Y172405D01*
X171096Y172376D01*
X171180Y172344D01*
X171262Y172309D01*
X171343Y172269D01*
X171422Y172227D01*
X171499Y172181D01*
X171574Y172131D01*
X171647Y172079D01*
X171718Y172023D01*
X171786Y171965D01*
X171851Y171903D01*
X171914Y171839D01*
X171974Y171772D01*
X172031Y171703D01*
X172085Y171631D01*
X172136Y171557D01*
X172184Y171481D01*
X172228Y171403D01*
X172269Y171323D01*
X172307Y171241D01*
X172341Y171158D01*
X172371Y171073D01*
X172398Y170987D01*
X172421Y170901D01*
X172440Y170813D01*
X172455Y170724D01*
X172467Y170635D01*
X172475Y170546D01*
X172479Y170456D01*
X172479Y170366D01*
X172475Y170276D01*
X172467Y170187D01*
X172455Y170098D01*
X172440Y170009D01*
X172421Y169921D01*
X172398Y169835D01*
X172371Y169749D01*
X172341Y169664D01*
X172307Y169581D01*
X172269Y169499D01*
X172228Y169419D01*
X172184Y169341D01*
X172136Y169265D01*
X172085Y169191D01*
X172031Y169119D01*
X171974Y169050D01*
X171914Y168983D01*
X171851Y168919D01*
X171786Y168857D01*
X171718Y168799D01*
X171647Y168743D01*
X171574Y168691D01*
X171499Y168641D01*
X171422Y168595D01*
X171343Y168553D01*
X171262Y168513D01*
X171180Y168478D01*
X171096Y168446D01*
X171011Y168417D01*
X170924Y168392D01*
X170837Y168371D01*
X170749Y168354D01*
X170660Y168340D01*
X170570Y168331D01*
X170481Y168325D01*
X170391Y168323D01*
X170391Y168322D02*
X168302Y168322D01*
X138389Y163101D02*
X136301Y163101D01*
X136212Y163103D01*
X136124Y163109D01*
X136036Y163118D01*
X135948Y163131D01*
X135861Y163148D01*
X135775Y163168D01*
X135690Y163193D01*
X135605Y163220D01*
X135522Y163252D01*
X135441Y163286D01*
X135361Y163325D01*
X135283Y163366D01*
X135206Y163411D01*
X135132Y163459D01*
X135059Y163510D01*
X134989Y163564D01*
X134922Y163622D01*
X134856Y163682D01*
X134794Y163744D01*
X134734Y163810D01*
X134676Y163877D01*
X134622Y163947D01*
X134571Y164020D01*
X134523Y164094D01*
X134478Y164171D01*
X134437Y164249D01*
X134398Y164329D01*
X134364Y164410D01*
X134332Y164493D01*
X134305Y164578D01*
X134280Y164663D01*
X134260Y164749D01*
X134243Y164836D01*
X134230Y164924D01*
X134221Y165012D01*
X134215Y165100D01*
X134213Y165189D01*
X134212Y165189D02*
X134212Y170411D01*
X134213Y170411D02*
X134215Y170502D01*
X134221Y170593D01*
X134231Y170684D01*
X134245Y170774D01*
X134262Y170863D01*
X134284Y170951D01*
X134310Y171039D01*
X134339Y171125D01*
X134372Y171210D01*
X134409Y171293D01*
X134449Y171375D01*
X134493Y171455D01*
X134540Y171533D01*
X134591Y171609D01*
X134644Y171682D01*
X134701Y171753D01*
X134762Y171822D01*
X134825Y171887D01*
X134890Y171950D01*
X134959Y172010D01*
X135030Y172068D01*
X135103Y172121D01*
X135179Y172172D01*
X135257Y172219D01*
X135337Y172263D01*
X135419Y172303D01*
X135502Y172340D01*
X135587Y172373D01*
X135673Y172402D01*
X135761Y172428D01*
X135849Y172450D01*
X135938Y172467D01*
X136028Y172481D01*
X136119Y172491D01*
X136210Y172497D01*
X136301Y172499D01*
X138389Y172499D01*
X143946Y172499D02*
X141858Y165189D01*
X147079Y165189D01*
X145513Y167278D02*
X145513Y163101D01*
X299789Y105951D02*
X301878Y105951D01*
X299789Y105951D02*
X299700Y105953D01*
X299612Y105959D01*
X299524Y105968D01*
X299436Y105981D01*
X299349Y105998D01*
X299263Y106018D01*
X299178Y106043D01*
X299093Y106070D01*
X299010Y106102D01*
X298929Y106136D01*
X298849Y106175D01*
X298771Y106216D01*
X298694Y106261D01*
X298620Y106309D01*
X298547Y106360D01*
X298477Y106414D01*
X298410Y106472D01*
X298344Y106532D01*
X298282Y106594D01*
X298222Y106660D01*
X298164Y106727D01*
X298110Y106797D01*
X298059Y106870D01*
X298011Y106944D01*
X297966Y107021D01*
X297925Y107099D01*
X297886Y107179D01*
X297852Y107260D01*
X297820Y107343D01*
X297793Y107428D01*
X297768Y107513D01*
X297748Y107599D01*
X297731Y107686D01*
X297718Y107774D01*
X297709Y107862D01*
X297703Y107950D01*
X297701Y108039D01*
X297701Y113261D01*
X297703Y113352D01*
X297709Y113443D01*
X297719Y113534D01*
X297733Y113624D01*
X297750Y113713D01*
X297772Y113801D01*
X297798Y113889D01*
X297827Y113975D01*
X297860Y114060D01*
X297897Y114143D01*
X297937Y114225D01*
X297981Y114305D01*
X298028Y114383D01*
X298079Y114459D01*
X298132Y114532D01*
X298189Y114603D01*
X298250Y114672D01*
X298313Y114737D01*
X298378Y114800D01*
X298447Y114860D01*
X298518Y114918D01*
X298591Y114971D01*
X298667Y115022D01*
X298745Y115069D01*
X298825Y115113D01*
X298907Y115153D01*
X298990Y115190D01*
X299075Y115223D01*
X299161Y115252D01*
X299249Y115278D01*
X299337Y115300D01*
X299426Y115317D01*
X299516Y115331D01*
X299607Y115341D01*
X299698Y115347D01*
X299789Y115349D01*
X301878Y115349D01*
X305347Y105951D02*
X308479Y105951D01*
X308568Y105953D01*
X308656Y105959D01*
X308744Y105968D01*
X308832Y105981D01*
X308919Y105998D01*
X309005Y106018D01*
X309090Y106043D01*
X309175Y106070D01*
X309258Y106102D01*
X309339Y106136D01*
X309419Y106175D01*
X309497Y106216D01*
X309574Y106261D01*
X309648Y106309D01*
X309721Y106360D01*
X309791Y106414D01*
X309858Y106472D01*
X309924Y106532D01*
X309986Y106594D01*
X310046Y106660D01*
X310104Y106727D01*
X310158Y106797D01*
X310209Y106870D01*
X310257Y106944D01*
X310302Y107021D01*
X310343Y107099D01*
X310382Y107179D01*
X310416Y107260D01*
X310448Y107343D01*
X310475Y107428D01*
X310500Y107513D01*
X310520Y107599D01*
X310537Y107686D01*
X310550Y107774D01*
X310559Y107862D01*
X310565Y107950D01*
X310567Y108039D01*
X310568Y108039D02*
X310568Y109084D01*
X310567Y109084D02*
X310565Y109173D01*
X310559Y109261D01*
X310550Y109349D01*
X310537Y109437D01*
X310520Y109524D01*
X310500Y109610D01*
X310475Y109695D01*
X310448Y109780D01*
X310416Y109863D01*
X310382Y109944D01*
X310343Y110024D01*
X310302Y110102D01*
X310257Y110179D01*
X310209Y110253D01*
X310158Y110326D01*
X310104Y110396D01*
X310046Y110463D01*
X309986Y110529D01*
X309924Y110591D01*
X309858Y110651D01*
X309791Y110709D01*
X309721Y110763D01*
X309648Y110814D01*
X309574Y110862D01*
X309497Y110907D01*
X309419Y110948D01*
X309339Y110987D01*
X309258Y111021D01*
X309175Y111053D01*
X309090Y111080D01*
X309005Y111105D01*
X308919Y111125D01*
X308832Y111142D01*
X308744Y111155D01*
X308656Y111164D01*
X308568Y111170D01*
X308479Y111172D01*
X305347Y111172D01*
X305347Y115349D01*
X310568Y115349D01*
X326459Y105951D02*
X328548Y105951D01*
X326459Y105951D02*
X326370Y105953D01*
X326282Y105959D01*
X326194Y105968D01*
X326106Y105981D01*
X326019Y105998D01*
X325933Y106018D01*
X325848Y106043D01*
X325763Y106070D01*
X325680Y106102D01*
X325599Y106136D01*
X325519Y106175D01*
X325441Y106216D01*
X325364Y106261D01*
X325290Y106309D01*
X325217Y106360D01*
X325147Y106414D01*
X325080Y106472D01*
X325014Y106532D01*
X324952Y106594D01*
X324892Y106660D01*
X324834Y106727D01*
X324780Y106797D01*
X324729Y106870D01*
X324681Y106944D01*
X324636Y107021D01*
X324595Y107099D01*
X324556Y107179D01*
X324522Y107260D01*
X324490Y107343D01*
X324463Y107428D01*
X324438Y107513D01*
X324418Y107599D01*
X324401Y107686D01*
X324388Y107774D01*
X324379Y107862D01*
X324373Y107950D01*
X324371Y108039D01*
X324371Y113261D01*
X324373Y113352D01*
X324379Y113443D01*
X324389Y113534D01*
X324403Y113624D01*
X324420Y113713D01*
X324442Y113801D01*
X324468Y113889D01*
X324497Y113975D01*
X324530Y114060D01*
X324567Y114143D01*
X324607Y114225D01*
X324651Y114305D01*
X324698Y114383D01*
X324749Y114459D01*
X324802Y114532D01*
X324859Y114603D01*
X324920Y114672D01*
X324983Y114737D01*
X325048Y114800D01*
X325117Y114860D01*
X325188Y114918D01*
X325261Y114971D01*
X325337Y115022D01*
X325415Y115069D01*
X325495Y115113D01*
X325577Y115153D01*
X325660Y115190D01*
X325745Y115223D01*
X325831Y115252D01*
X325919Y115278D01*
X326007Y115300D01*
X326096Y115317D01*
X326186Y115331D01*
X326277Y115341D01*
X326368Y115347D01*
X326459Y115349D01*
X328548Y115349D01*
X332017Y111172D02*
X335149Y111172D01*
X335238Y111170D01*
X335326Y111164D01*
X335414Y111155D01*
X335502Y111142D01*
X335589Y111125D01*
X335675Y111105D01*
X335760Y111080D01*
X335845Y111053D01*
X335928Y111021D01*
X336009Y110987D01*
X336089Y110948D01*
X336167Y110907D01*
X336244Y110862D01*
X336318Y110814D01*
X336391Y110763D01*
X336461Y110709D01*
X336528Y110651D01*
X336594Y110591D01*
X336656Y110529D01*
X336716Y110463D01*
X336774Y110396D01*
X336828Y110326D01*
X336879Y110253D01*
X336927Y110179D01*
X336972Y110102D01*
X337013Y110024D01*
X337052Y109944D01*
X337086Y109863D01*
X337118Y109780D01*
X337145Y109695D01*
X337170Y109610D01*
X337190Y109524D01*
X337207Y109437D01*
X337220Y109349D01*
X337229Y109261D01*
X337235Y109173D01*
X337237Y109084D01*
X337238Y109084D02*
X337238Y108562D01*
X337236Y108461D01*
X337230Y108360D01*
X337220Y108259D01*
X337207Y108159D01*
X337189Y108059D01*
X337168Y107960D01*
X337142Y107862D01*
X337113Y107765D01*
X337081Y107669D01*
X337044Y107575D01*
X337004Y107482D01*
X336960Y107390D01*
X336913Y107301D01*
X336862Y107213D01*
X336808Y107127D01*
X336751Y107044D01*
X336691Y106962D01*
X336627Y106884D01*
X336561Y106807D01*
X336491Y106734D01*
X336419Y106663D01*
X336344Y106595D01*
X336266Y106530D01*
X336186Y106468D01*
X336104Y106409D01*
X336019Y106353D01*
X335932Y106301D01*
X335844Y106252D01*
X335753Y106206D01*
X335661Y106165D01*
X335567Y106126D01*
X335472Y106092D01*
X335376Y106061D01*
X335278Y106034D01*
X335180Y106010D01*
X335080Y105991D01*
X334980Y105975D01*
X334880Y105963D01*
X334779Y105955D01*
X334678Y105951D01*
X334576Y105951D01*
X334475Y105955D01*
X334374Y105963D01*
X334274Y105975D01*
X334174Y105991D01*
X334074Y106010D01*
X333976Y106034D01*
X333878Y106061D01*
X333782Y106092D01*
X333687Y106126D01*
X333593Y106165D01*
X333501Y106206D01*
X333410Y106252D01*
X333322Y106301D01*
X333235Y106353D01*
X333150Y106409D01*
X333068Y106468D01*
X332988Y106530D01*
X332910Y106595D01*
X332835Y106663D01*
X332763Y106734D01*
X332693Y106807D01*
X332627Y106884D01*
X332563Y106962D01*
X332503Y107044D01*
X332446Y107127D01*
X332392Y107213D01*
X332341Y107301D01*
X332294Y107390D01*
X332250Y107482D01*
X332210Y107575D01*
X332173Y107669D01*
X332141Y107765D01*
X332112Y107862D01*
X332086Y107960D01*
X332065Y108059D01*
X332047Y108159D01*
X332034Y108259D01*
X332024Y108360D01*
X332018Y108461D01*
X332016Y108562D01*
X332017Y108562D02*
X332017Y111172D01*
X332019Y111301D01*
X332025Y111429D01*
X332035Y111557D01*
X332049Y111685D01*
X332066Y111813D01*
X332088Y111940D01*
X332114Y112066D01*
X332143Y112191D01*
X332176Y112315D01*
X332214Y112438D01*
X332254Y112560D01*
X332299Y112681D01*
X332347Y112800D01*
X332399Y112918D01*
X332455Y113034D01*
X332514Y113148D01*
X332577Y113260D01*
X332643Y113371D01*
X332712Y113479D01*
X332785Y113585D01*
X332861Y113689D01*
X332940Y113791D01*
X333022Y113890D01*
X333107Y113986D01*
X333195Y114080D01*
X333286Y114171D01*
X333380Y114259D01*
X333476Y114344D01*
X333575Y114426D01*
X333677Y114505D01*
X333781Y114581D01*
X333887Y114654D01*
X333995Y114723D01*
X334105Y114789D01*
X334218Y114852D01*
X334332Y114911D01*
X334448Y114967D01*
X334566Y115019D01*
X334685Y115067D01*
X334806Y115112D01*
X334928Y115152D01*
X335051Y115190D01*
X335175Y115223D01*
X335300Y115252D01*
X335426Y115278D01*
X335553Y115300D01*
X335681Y115317D01*
X335809Y115331D01*
X335937Y115341D01*
X336065Y115347D01*
X336194Y115349D01*
X159358Y100551D02*
X157269Y100551D01*
X157180Y100553D01*
X157092Y100559D01*
X157004Y100568D01*
X156916Y100581D01*
X156829Y100598D01*
X156743Y100618D01*
X156658Y100643D01*
X156573Y100670D01*
X156490Y100702D01*
X156409Y100736D01*
X156329Y100775D01*
X156251Y100816D01*
X156174Y100861D01*
X156100Y100909D01*
X156027Y100960D01*
X155957Y101014D01*
X155890Y101072D01*
X155824Y101132D01*
X155762Y101194D01*
X155702Y101260D01*
X155644Y101327D01*
X155590Y101397D01*
X155539Y101470D01*
X155491Y101544D01*
X155446Y101621D01*
X155405Y101699D01*
X155366Y101779D01*
X155332Y101860D01*
X155300Y101943D01*
X155273Y102028D01*
X155248Y102113D01*
X155228Y102199D01*
X155211Y102286D01*
X155198Y102374D01*
X155189Y102462D01*
X155183Y102550D01*
X155181Y102639D01*
X155181Y107861D01*
X155183Y107952D01*
X155189Y108043D01*
X155199Y108134D01*
X155213Y108224D01*
X155230Y108313D01*
X155252Y108401D01*
X155278Y108489D01*
X155307Y108575D01*
X155340Y108660D01*
X155377Y108743D01*
X155417Y108825D01*
X155461Y108905D01*
X155508Y108983D01*
X155559Y109059D01*
X155612Y109132D01*
X155669Y109203D01*
X155730Y109272D01*
X155793Y109337D01*
X155858Y109400D01*
X155927Y109460D01*
X155998Y109518D01*
X156071Y109571D01*
X156147Y109622D01*
X156225Y109669D01*
X156305Y109713D01*
X156387Y109753D01*
X156470Y109790D01*
X156555Y109823D01*
X156641Y109852D01*
X156729Y109878D01*
X156817Y109900D01*
X156906Y109917D01*
X156996Y109931D01*
X157087Y109941D01*
X157178Y109947D01*
X157269Y109949D01*
X159358Y109949D01*
X162827Y109949D02*
X162827Y108905D01*
X162827Y109949D02*
X168048Y109949D01*
X165437Y100551D01*
X133958Y100551D02*
X131869Y100551D01*
X131780Y100553D01*
X131692Y100559D01*
X131604Y100568D01*
X131516Y100581D01*
X131429Y100598D01*
X131343Y100618D01*
X131258Y100643D01*
X131173Y100670D01*
X131090Y100702D01*
X131009Y100736D01*
X130929Y100775D01*
X130851Y100816D01*
X130774Y100861D01*
X130700Y100909D01*
X130627Y100960D01*
X130557Y101014D01*
X130490Y101072D01*
X130424Y101132D01*
X130362Y101194D01*
X130302Y101260D01*
X130244Y101327D01*
X130190Y101397D01*
X130139Y101470D01*
X130091Y101544D01*
X130046Y101621D01*
X130005Y101699D01*
X129966Y101779D01*
X129932Y101860D01*
X129900Y101943D01*
X129873Y102028D01*
X129848Y102113D01*
X129828Y102199D01*
X129811Y102286D01*
X129798Y102374D01*
X129789Y102462D01*
X129783Y102550D01*
X129781Y102639D01*
X129781Y107861D01*
X129783Y107950D01*
X129789Y108038D01*
X129798Y108126D01*
X129811Y108214D01*
X129828Y108301D01*
X129848Y108387D01*
X129873Y108472D01*
X129900Y108557D01*
X129932Y108640D01*
X129966Y108721D01*
X130005Y108801D01*
X130046Y108879D01*
X130091Y108956D01*
X130139Y109030D01*
X130190Y109103D01*
X130244Y109173D01*
X130302Y109240D01*
X130362Y109306D01*
X130424Y109368D01*
X130490Y109428D01*
X130557Y109486D01*
X130627Y109540D01*
X130700Y109591D01*
X130774Y109639D01*
X130851Y109684D01*
X130929Y109725D01*
X131009Y109764D01*
X131090Y109798D01*
X131173Y109830D01*
X131258Y109857D01*
X131343Y109882D01*
X131429Y109902D01*
X131516Y109919D01*
X131604Y109932D01*
X131692Y109941D01*
X131780Y109947D01*
X131869Y109949D01*
X133958Y109949D01*
X137426Y103162D02*
X137428Y103263D01*
X137434Y103364D01*
X137444Y103465D01*
X137457Y103565D01*
X137475Y103665D01*
X137496Y103764D01*
X137522Y103862D01*
X137551Y103959D01*
X137583Y104055D01*
X137620Y104149D01*
X137660Y104242D01*
X137704Y104334D01*
X137751Y104423D01*
X137802Y104511D01*
X137856Y104597D01*
X137913Y104680D01*
X137973Y104762D01*
X138037Y104840D01*
X138103Y104917D01*
X138173Y104990D01*
X138245Y105061D01*
X138320Y105129D01*
X138398Y105194D01*
X138478Y105256D01*
X138560Y105315D01*
X138645Y105371D01*
X138732Y105423D01*
X138820Y105472D01*
X138911Y105518D01*
X139003Y105559D01*
X139097Y105598D01*
X139192Y105632D01*
X139288Y105663D01*
X139386Y105690D01*
X139484Y105714D01*
X139584Y105733D01*
X139684Y105749D01*
X139784Y105761D01*
X139885Y105769D01*
X139986Y105773D01*
X140088Y105773D01*
X140189Y105769D01*
X140290Y105761D01*
X140390Y105749D01*
X140490Y105733D01*
X140590Y105714D01*
X140688Y105690D01*
X140786Y105663D01*
X140882Y105632D01*
X140977Y105598D01*
X141071Y105559D01*
X141163Y105518D01*
X141254Y105472D01*
X141343Y105423D01*
X141429Y105371D01*
X141514Y105315D01*
X141596Y105256D01*
X141676Y105194D01*
X141754Y105129D01*
X141829Y105061D01*
X141901Y104990D01*
X141971Y104917D01*
X142037Y104840D01*
X142101Y104762D01*
X142161Y104680D01*
X142218Y104597D01*
X142272Y104511D01*
X142323Y104423D01*
X142370Y104334D01*
X142414Y104242D01*
X142454Y104149D01*
X142491Y104055D01*
X142523Y103959D01*
X142552Y103862D01*
X142578Y103764D01*
X142599Y103665D01*
X142617Y103565D01*
X142630Y103465D01*
X142640Y103364D01*
X142646Y103263D01*
X142648Y103162D01*
X142646Y103061D01*
X142640Y102960D01*
X142630Y102859D01*
X142617Y102759D01*
X142599Y102659D01*
X142578Y102560D01*
X142552Y102462D01*
X142523Y102365D01*
X142491Y102269D01*
X142454Y102175D01*
X142414Y102082D01*
X142370Y101990D01*
X142323Y101901D01*
X142272Y101813D01*
X142218Y101727D01*
X142161Y101644D01*
X142101Y101562D01*
X142037Y101484D01*
X141971Y101407D01*
X141901Y101334D01*
X141829Y101263D01*
X141754Y101195D01*
X141676Y101130D01*
X141596Y101068D01*
X141514Y101009D01*
X141429Y100953D01*
X141342Y100901D01*
X141254Y100852D01*
X141163Y100806D01*
X141071Y100765D01*
X140977Y100726D01*
X140882Y100692D01*
X140786Y100661D01*
X140688Y100634D01*
X140590Y100610D01*
X140490Y100591D01*
X140390Y100575D01*
X140290Y100563D01*
X140189Y100555D01*
X140088Y100551D01*
X139986Y100551D01*
X139885Y100555D01*
X139784Y100563D01*
X139684Y100575D01*
X139584Y100591D01*
X139484Y100610D01*
X139386Y100634D01*
X139288Y100661D01*
X139192Y100692D01*
X139097Y100726D01*
X139003Y100765D01*
X138911Y100806D01*
X138820Y100852D01*
X138732Y100901D01*
X138645Y100953D01*
X138560Y101009D01*
X138478Y101068D01*
X138398Y101130D01*
X138320Y101195D01*
X138245Y101263D01*
X138173Y101334D01*
X138103Y101407D01*
X138037Y101484D01*
X137973Y101562D01*
X137913Y101644D01*
X137856Y101727D01*
X137802Y101813D01*
X137751Y101901D01*
X137704Y101990D01*
X137660Y102082D01*
X137620Y102175D01*
X137583Y102269D01*
X137551Y102365D01*
X137522Y102462D01*
X137496Y102560D01*
X137475Y102659D01*
X137457Y102759D01*
X137444Y102859D01*
X137434Y102960D01*
X137428Y103061D01*
X137426Y103162D01*
X137949Y107861D02*
X137951Y107951D01*
X137957Y108040D01*
X137966Y108130D01*
X137980Y108219D01*
X137997Y108307D01*
X138018Y108394D01*
X138043Y108481D01*
X138072Y108566D01*
X138104Y108650D01*
X138139Y108732D01*
X138179Y108813D01*
X138221Y108892D01*
X138267Y108969D01*
X138317Y109044D01*
X138369Y109117D01*
X138425Y109188D01*
X138483Y109256D01*
X138545Y109321D01*
X138609Y109384D01*
X138676Y109444D01*
X138745Y109501D01*
X138817Y109555D01*
X138891Y109606D01*
X138967Y109654D01*
X139045Y109698D01*
X139125Y109739D01*
X139207Y109777D01*
X139290Y109811D01*
X139375Y109841D01*
X139461Y109868D01*
X139547Y109891D01*
X139635Y109910D01*
X139724Y109925D01*
X139813Y109937D01*
X139902Y109945D01*
X139992Y109949D01*
X140082Y109949D01*
X140172Y109945D01*
X140261Y109937D01*
X140350Y109925D01*
X140439Y109910D01*
X140527Y109891D01*
X140613Y109868D01*
X140699Y109841D01*
X140784Y109811D01*
X140867Y109777D01*
X140949Y109739D01*
X141029Y109698D01*
X141107Y109654D01*
X141183Y109606D01*
X141257Y109555D01*
X141329Y109501D01*
X141398Y109444D01*
X141465Y109384D01*
X141529Y109321D01*
X141591Y109256D01*
X141649Y109188D01*
X141705Y109117D01*
X141757Y109044D01*
X141807Y108969D01*
X141853Y108892D01*
X141895Y108813D01*
X141935Y108732D01*
X141970Y108650D01*
X142002Y108566D01*
X142031Y108481D01*
X142056Y108394D01*
X142077Y108307D01*
X142094Y108219D01*
X142108Y108130D01*
X142117Y108040D01*
X142123Y107951D01*
X142125Y107861D01*
X142123Y107771D01*
X142117Y107682D01*
X142108Y107592D01*
X142094Y107503D01*
X142077Y107415D01*
X142056Y107328D01*
X142031Y107241D01*
X142002Y107156D01*
X141970Y107072D01*
X141935Y106990D01*
X141895Y106909D01*
X141853Y106830D01*
X141807Y106753D01*
X141757Y106678D01*
X141705Y106605D01*
X141649Y106534D01*
X141591Y106466D01*
X141529Y106401D01*
X141465Y106338D01*
X141398Y106278D01*
X141329Y106221D01*
X141257Y106167D01*
X141183Y106116D01*
X141107Y106068D01*
X141029Y106024D01*
X140949Y105983D01*
X140867Y105945D01*
X140784Y105911D01*
X140699Y105881D01*
X140613Y105854D01*
X140527Y105831D01*
X140439Y105812D01*
X140350Y105797D01*
X140261Y105785D01*
X140172Y105777D01*
X140082Y105773D01*
X139992Y105773D01*
X139902Y105777D01*
X139813Y105785D01*
X139724Y105797D01*
X139635Y105812D01*
X139547Y105831D01*
X139461Y105854D01*
X139375Y105881D01*
X139290Y105911D01*
X139207Y105945D01*
X139125Y105983D01*
X139045Y106024D01*
X138967Y106068D01*
X138891Y106116D01*
X138817Y106167D01*
X138745Y106221D01*
X138676Y106278D01*
X138609Y106338D01*
X138545Y106401D01*
X138483Y106466D01*
X138425Y106534D01*
X138369Y106605D01*
X138317Y106678D01*
X138267Y106753D01*
X138221Y106830D01*
X138179Y106909D01*
X138139Y106990D01*
X138104Y107072D01*
X138072Y107156D01*
X138043Y107241D01*
X138018Y107328D01*
X137997Y107415D01*
X137980Y107503D01*
X137966Y107592D01*
X137957Y107682D01*
X137951Y107771D01*
X137949Y107861D01*
D11*
X203450Y185170D02*
X266450Y185170D01*
X266450Y122170D01*
X203450Y122170D01*
X203450Y185170D01*
D12*
X187200Y193670D02*
X187202Y193759D01*
X187208Y193848D01*
X187218Y193937D01*
X187232Y194025D01*
X187249Y194112D01*
X187271Y194198D01*
X187297Y194284D01*
X187326Y194368D01*
X187359Y194451D01*
X187395Y194532D01*
X187436Y194612D01*
X187479Y194689D01*
X187526Y194765D01*
X187577Y194838D01*
X187630Y194909D01*
X187687Y194978D01*
X187747Y195044D01*
X187810Y195108D01*
X187875Y195168D01*
X187943Y195226D01*
X188014Y195280D01*
X188087Y195331D01*
X188162Y195379D01*
X188239Y195424D01*
X188318Y195465D01*
X188399Y195502D01*
X188481Y195536D01*
X188565Y195567D01*
X188650Y195593D01*
X188736Y195616D01*
X188823Y195634D01*
X188911Y195649D01*
X189000Y195660D01*
X189089Y195667D01*
X189178Y195670D01*
X189267Y195669D01*
X189356Y195664D01*
X189444Y195655D01*
X189533Y195642D01*
X189620Y195625D01*
X189707Y195605D01*
X189793Y195580D01*
X189877Y195552D01*
X189960Y195520D01*
X190042Y195484D01*
X190122Y195445D01*
X190200Y195402D01*
X190276Y195356D01*
X190350Y195306D01*
X190422Y195253D01*
X190491Y195197D01*
X190558Y195138D01*
X190622Y195076D01*
X190683Y195012D01*
X190742Y194944D01*
X190797Y194874D01*
X190849Y194802D01*
X190898Y194727D01*
X190943Y194651D01*
X190985Y194572D01*
X191023Y194492D01*
X191058Y194410D01*
X191089Y194326D01*
X191117Y194241D01*
X191140Y194155D01*
X191160Y194068D01*
X191176Y193981D01*
X191188Y193892D01*
X191196Y193804D01*
X191200Y193715D01*
X191200Y193625D01*
X191196Y193536D01*
X191188Y193448D01*
X191176Y193359D01*
X191160Y193272D01*
X191140Y193185D01*
X191117Y193099D01*
X191089Y193014D01*
X191058Y192930D01*
X191023Y192848D01*
X190985Y192768D01*
X190943Y192689D01*
X190898Y192613D01*
X190849Y192538D01*
X190797Y192466D01*
X190742Y192396D01*
X190683Y192328D01*
X190622Y192264D01*
X190558Y192202D01*
X190491Y192143D01*
X190422Y192087D01*
X190350Y192034D01*
X190276Y191984D01*
X190200Y191938D01*
X190122Y191895D01*
X190042Y191856D01*
X189960Y191820D01*
X189877Y191788D01*
X189793Y191760D01*
X189707Y191735D01*
X189620Y191715D01*
X189533Y191698D01*
X189444Y191685D01*
X189356Y191676D01*
X189267Y191671D01*
X189178Y191670D01*
X189089Y191673D01*
X189000Y191680D01*
X188911Y191691D01*
X188823Y191706D01*
X188736Y191724D01*
X188650Y191747D01*
X188565Y191773D01*
X188481Y191804D01*
X188399Y191838D01*
X188318Y191875D01*
X188239Y191916D01*
X188162Y191961D01*
X188087Y192009D01*
X188014Y192060D01*
X187943Y192114D01*
X187875Y192172D01*
X187810Y192232D01*
X187747Y192296D01*
X187687Y192362D01*
X187630Y192431D01*
X187577Y192502D01*
X187526Y192575D01*
X187479Y192651D01*
X187436Y192728D01*
X187395Y192808D01*
X187359Y192889D01*
X187326Y192972D01*
X187297Y193056D01*
X187271Y193142D01*
X187249Y193228D01*
X187232Y193315D01*
X187218Y193403D01*
X187208Y193492D01*
X187202Y193581D01*
X187200Y193670D01*
D13*
X185272Y92202D02*
X185272Y80518D01*
X183974Y80518D02*
X186570Y80518D01*
X186570Y92202D02*
X183974Y92202D01*
X193734Y80518D02*
X196330Y80518D01*
X193734Y80518D02*
X193635Y80520D01*
X193535Y80526D01*
X193436Y80535D01*
X193338Y80548D01*
X193240Y80565D01*
X193142Y80586D01*
X193046Y80611D01*
X192951Y80639D01*
X192857Y80671D01*
X192764Y80706D01*
X192672Y80745D01*
X192582Y80788D01*
X192494Y80833D01*
X192407Y80883D01*
X192323Y80935D01*
X192240Y80991D01*
X192160Y81049D01*
X192082Y81111D01*
X192007Y81176D01*
X191934Y81244D01*
X191864Y81314D01*
X191796Y81387D01*
X191731Y81462D01*
X191669Y81540D01*
X191611Y81620D01*
X191555Y81703D01*
X191503Y81787D01*
X191453Y81874D01*
X191408Y81962D01*
X191365Y82052D01*
X191326Y82144D01*
X191291Y82237D01*
X191259Y82331D01*
X191231Y82426D01*
X191206Y82522D01*
X191185Y82620D01*
X191168Y82718D01*
X191155Y82816D01*
X191146Y82915D01*
X191140Y83015D01*
X191138Y83114D01*
X191137Y83114D02*
X191137Y89606D01*
X191138Y89606D02*
X191140Y89705D01*
X191146Y89805D01*
X191155Y89904D01*
X191168Y90002D01*
X191185Y90100D01*
X191206Y90198D01*
X191231Y90294D01*
X191259Y90389D01*
X191291Y90483D01*
X191326Y90576D01*
X191365Y90668D01*
X191408Y90758D01*
X191453Y90846D01*
X191503Y90933D01*
X191555Y91017D01*
X191611Y91100D01*
X191669Y91180D01*
X191731Y91258D01*
X191796Y91333D01*
X191864Y91406D01*
X191934Y91476D01*
X192007Y91544D01*
X192082Y91609D01*
X192160Y91671D01*
X192240Y91729D01*
X192323Y91785D01*
X192407Y91837D01*
X192494Y91887D01*
X192582Y91932D01*
X192672Y91975D01*
X192764Y92014D01*
X192856Y92049D01*
X192951Y92081D01*
X193046Y92109D01*
X193142Y92134D01*
X193240Y92155D01*
X193338Y92172D01*
X193436Y92185D01*
X193535Y92194D01*
X193635Y92200D01*
X193734Y92202D01*
X196330Y92202D01*
X200695Y89606D02*
X203941Y92202D01*
X203941Y80518D01*
X207186Y80518D02*
X200695Y80518D01*
D11*
X130000Y67840D02*
X124000Y67840D01*
X130000Y67840D02*
X130000Y38840D01*
X124000Y38840D01*
X124000Y67840D01*
X120500Y68340D02*
X108500Y68340D01*
D13*
X116692Y33782D02*
X116692Y22098D01*
X115394Y22098D02*
X117990Y22098D01*
X117990Y33782D02*
X115394Y33782D01*
X125154Y22098D02*
X127750Y22098D01*
X125154Y22098D02*
X125055Y22100D01*
X124955Y22106D01*
X124856Y22115D01*
X124758Y22128D01*
X124660Y22145D01*
X124562Y22166D01*
X124466Y22191D01*
X124371Y22219D01*
X124277Y22251D01*
X124184Y22286D01*
X124092Y22325D01*
X124002Y22368D01*
X123914Y22413D01*
X123827Y22463D01*
X123743Y22515D01*
X123660Y22571D01*
X123580Y22629D01*
X123502Y22691D01*
X123427Y22756D01*
X123354Y22824D01*
X123284Y22894D01*
X123216Y22967D01*
X123151Y23042D01*
X123089Y23120D01*
X123031Y23200D01*
X122975Y23283D01*
X122923Y23367D01*
X122873Y23454D01*
X122828Y23542D01*
X122785Y23632D01*
X122746Y23724D01*
X122711Y23817D01*
X122679Y23911D01*
X122651Y24006D01*
X122626Y24102D01*
X122605Y24200D01*
X122588Y24298D01*
X122575Y24396D01*
X122566Y24495D01*
X122560Y24595D01*
X122558Y24694D01*
X122557Y24694D02*
X122557Y31186D01*
X122558Y31186D02*
X122560Y31285D01*
X122566Y31385D01*
X122575Y31484D01*
X122588Y31582D01*
X122605Y31680D01*
X122626Y31778D01*
X122651Y31874D01*
X122679Y31969D01*
X122711Y32063D01*
X122746Y32156D01*
X122785Y32248D01*
X122828Y32338D01*
X122873Y32426D01*
X122923Y32513D01*
X122975Y32597D01*
X123031Y32680D01*
X123089Y32760D01*
X123151Y32838D01*
X123216Y32913D01*
X123284Y32986D01*
X123354Y33056D01*
X123427Y33124D01*
X123502Y33189D01*
X123580Y33251D01*
X123660Y33309D01*
X123743Y33365D01*
X123827Y33417D01*
X123914Y33467D01*
X124002Y33512D01*
X124092Y33555D01*
X124184Y33594D01*
X124276Y33629D01*
X124371Y33661D01*
X124466Y33689D01*
X124562Y33714D01*
X124660Y33735D01*
X124758Y33752D01*
X124856Y33765D01*
X124955Y33774D01*
X125055Y33780D01*
X125154Y33782D01*
X127750Y33782D01*
X135685Y33782D02*
X135792Y33780D01*
X135898Y33774D01*
X136004Y33764D01*
X136110Y33751D01*
X136216Y33733D01*
X136320Y33712D01*
X136424Y33687D01*
X136527Y33658D01*
X136628Y33626D01*
X136728Y33589D01*
X136827Y33549D01*
X136925Y33506D01*
X137021Y33459D01*
X137115Y33408D01*
X137207Y33354D01*
X137297Y33297D01*
X137385Y33237D01*
X137470Y33173D01*
X137553Y33106D01*
X137634Y33036D01*
X137712Y32964D01*
X137788Y32888D01*
X137860Y32810D01*
X137930Y32729D01*
X137997Y32646D01*
X138061Y32561D01*
X138121Y32473D01*
X138178Y32383D01*
X138232Y32291D01*
X138283Y32197D01*
X138330Y32101D01*
X138373Y32003D01*
X138413Y31904D01*
X138450Y31804D01*
X138482Y31703D01*
X138511Y31600D01*
X138536Y31496D01*
X138557Y31392D01*
X138575Y31286D01*
X138588Y31180D01*
X138598Y31074D01*
X138604Y30968D01*
X138606Y30861D01*
X135685Y33782D02*
X135564Y33780D01*
X135443Y33774D01*
X135323Y33764D01*
X135202Y33751D01*
X135083Y33733D01*
X134963Y33712D01*
X134845Y33687D01*
X134728Y33658D01*
X134611Y33625D01*
X134496Y33589D01*
X134382Y33548D01*
X134269Y33505D01*
X134157Y33457D01*
X134048Y33406D01*
X133940Y33351D01*
X133833Y33293D01*
X133729Y33232D01*
X133627Y33167D01*
X133527Y33099D01*
X133429Y33028D01*
X133333Y32954D01*
X133240Y32877D01*
X133150Y32796D01*
X133062Y32713D01*
X132977Y32627D01*
X132894Y32538D01*
X132815Y32447D01*
X132738Y32353D01*
X132665Y32257D01*
X132595Y32159D01*
X132528Y32058D01*
X132464Y31955D01*
X132404Y31850D01*
X132347Y31743D01*
X132293Y31635D01*
X132243Y31525D01*
X132197Y31413D01*
X132154Y31300D01*
X132115Y31185D01*
X137633Y28589D02*
X137712Y28666D01*
X137788Y28747D01*
X137861Y28830D01*
X137931Y28915D01*
X137998Y29003D01*
X138062Y29093D01*
X138122Y29185D01*
X138179Y29280D01*
X138233Y29376D01*
X138284Y29474D01*
X138331Y29574D01*
X138375Y29676D01*
X138415Y29779D01*
X138451Y29883D01*
X138483Y29989D01*
X138512Y30095D01*
X138537Y30203D01*
X138559Y30311D01*
X138576Y30421D01*
X138590Y30530D01*
X138599Y30640D01*
X138605Y30751D01*
X138607Y30861D01*
X137633Y28589D02*
X132115Y22098D01*
X138606Y22098D01*
D14*
X38960Y263490D03*
D11*
X38916Y263488D01*
X38873Y263482D01*
X38831Y263473D01*
X38789Y263460D01*
X38749Y263443D01*
X38710Y263423D01*
X38673Y263400D01*
X38639Y263373D01*
X38606Y263344D01*
X38577Y263311D01*
X38550Y263277D01*
X38527Y263240D01*
X38507Y263201D01*
X38490Y263161D01*
X38477Y263119D01*
X38468Y263077D01*
X38462Y263034D01*
X38460Y262990D01*
X38462Y262946D01*
X38468Y262903D01*
X38477Y262861D01*
X38490Y262819D01*
X38507Y262779D01*
X38527Y262740D01*
X38550Y262703D01*
X38577Y262669D01*
X38606Y262636D01*
X38639Y262607D01*
X38673Y262580D01*
X38710Y262557D01*
X38749Y262537D01*
X38789Y262520D01*
X38831Y262507D01*
X38873Y262498D01*
X38916Y262492D01*
X38960Y262490D01*
D14*
X38960Y262490D03*
D11*
X39004Y262492D01*
X39047Y262498D01*
X39089Y262507D01*
X39131Y262520D01*
X39171Y262537D01*
X39210Y262557D01*
X39247Y262580D01*
X39281Y262607D01*
X39314Y262636D01*
X39343Y262669D01*
X39370Y262703D01*
X39393Y262740D01*
X39413Y262779D01*
X39430Y262819D01*
X39443Y262861D01*
X39452Y262903D01*
X39458Y262946D01*
X39460Y262990D01*
X39458Y263034D01*
X39452Y263077D01*
X39443Y263119D01*
X39430Y263161D01*
X39413Y263201D01*
X39393Y263240D01*
X39370Y263277D01*
X39343Y263311D01*
X39314Y263344D01*
X39281Y263373D01*
X39247Y263400D01*
X39210Y263423D01*
X39171Y263443D01*
X39131Y263460D01*
X39089Y263473D01*
X39047Y263482D01*
X39004Y263488D01*
X38960Y263490D01*
D14*
X38960Y263490D03*
D11*
X38916Y263488D01*
X38873Y263482D01*
X38831Y263473D01*
X38789Y263460D01*
X38749Y263443D01*
X38710Y263423D01*
X38673Y263400D01*
X38639Y263373D01*
X38606Y263344D01*
X38577Y263311D01*
X38550Y263277D01*
X38527Y263240D01*
X38507Y263201D01*
X38490Y263161D01*
X38477Y263119D01*
X38468Y263077D01*
X38462Y263034D01*
X38460Y262990D01*
X38462Y262946D01*
X38468Y262903D01*
X38477Y262861D01*
X38490Y262819D01*
X38507Y262779D01*
X38527Y262740D01*
X38550Y262703D01*
X38577Y262669D01*
X38606Y262636D01*
X38639Y262607D01*
X38673Y262580D01*
X38710Y262557D01*
X38749Y262537D01*
X38789Y262520D01*
X38831Y262507D01*
X38873Y262498D01*
X38916Y262492D01*
X38960Y262490D01*
D13*
X20586Y271655D02*
X11498Y271655D01*
X20586Y271655D02*
X20685Y271653D01*
X20785Y271647D01*
X20884Y271638D01*
X20982Y271625D01*
X21080Y271608D01*
X21178Y271587D01*
X21274Y271562D01*
X21369Y271534D01*
X21463Y271502D01*
X21556Y271467D01*
X21648Y271428D01*
X21738Y271385D01*
X21826Y271340D01*
X21913Y271290D01*
X21997Y271238D01*
X22080Y271182D01*
X22160Y271124D01*
X22238Y271062D01*
X22313Y270997D01*
X22386Y270929D01*
X22456Y270859D01*
X22524Y270786D01*
X22589Y270711D01*
X22651Y270633D01*
X22709Y270553D01*
X22765Y270470D01*
X22817Y270386D01*
X22867Y270299D01*
X22912Y270211D01*
X22955Y270121D01*
X22994Y270029D01*
X23029Y269936D01*
X23061Y269842D01*
X23089Y269747D01*
X23114Y269651D01*
X23135Y269553D01*
X23152Y269455D01*
X23165Y269357D01*
X23174Y269258D01*
X23180Y269158D01*
X23182Y269059D01*
X23182Y267760D01*
X14094Y276928D02*
X11498Y280174D01*
X23182Y280174D01*
X23182Y276928D02*
X23182Y283420D01*
D15*
X-4572Y80518D02*
X-4572Y21082D01*
X13020Y21082D01*
X36184Y80518D02*
X39913Y80518D01*
X13020Y80518D02*
X-4572Y80518D01*
X36184Y21082D02*
X39913Y21082D01*
D16*
X51202Y94488D02*
X51080Y94490D01*
X50958Y94496D01*
X50836Y94506D01*
X50715Y94519D01*
X50594Y94537D01*
X50474Y94558D01*
X50354Y94584D01*
X50236Y94613D01*
X50118Y94645D01*
X50001Y94682D01*
X49886Y94722D01*
X49772Y94766D01*
X49660Y94814D01*
X49549Y94865D01*
X49440Y94920D01*
X49332Y94978D01*
X49227Y95040D01*
X49124Y95105D01*
X49022Y95173D01*
X48923Y95245D01*
X48827Y95319D01*
X48732Y95397D01*
X48641Y95478D01*
X48551Y95561D01*
X48465Y95647D01*
X48382Y95737D01*
X48301Y95828D01*
X48223Y95923D01*
X48149Y96019D01*
X48077Y96118D01*
X48009Y96220D01*
X47944Y96323D01*
X47882Y96428D01*
X47824Y96536D01*
X47769Y96645D01*
X47718Y96756D01*
X47670Y96868D01*
X47626Y96982D01*
X47586Y97097D01*
X47549Y97214D01*
X47517Y97332D01*
X47488Y97450D01*
X47462Y97570D01*
X47441Y97690D01*
X47423Y97811D01*
X47410Y97932D01*
X47400Y98054D01*
X47394Y98176D01*
X47392Y98298D01*
X47394Y98420D01*
X47400Y98542D01*
X47410Y98664D01*
X47423Y98785D01*
X47441Y98906D01*
X47462Y99026D01*
X47488Y99146D01*
X47517Y99264D01*
X47549Y99382D01*
X47586Y99499D01*
X47626Y99614D01*
X47670Y99728D01*
X47718Y99840D01*
X47769Y99951D01*
X47824Y100060D01*
X47882Y100168D01*
X47944Y100273D01*
X48009Y100376D01*
X48077Y100478D01*
X48149Y100577D01*
X48223Y100673D01*
X48301Y100768D01*
X48382Y100859D01*
X48465Y100949D01*
X48551Y101035D01*
X48641Y101118D01*
X48732Y101199D01*
X48827Y101277D01*
X48923Y101351D01*
X49022Y101423D01*
X49124Y101491D01*
X49227Y101556D01*
X49332Y101618D01*
X49440Y101676D01*
X49549Y101731D01*
X49660Y101782D01*
X49772Y101830D01*
X49886Y101874D01*
X50001Y101914D01*
X50118Y101951D01*
X50236Y101983D01*
X50354Y102012D01*
X50474Y102038D01*
X50594Y102059D01*
X50715Y102077D01*
X50836Y102090D01*
X50958Y102100D01*
X51080Y102106D01*
X51202Y102108D01*
X51324Y102106D01*
X51446Y102100D01*
X51568Y102090D01*
X51689Y102077D01*
X51810Y102059D01*
X51930Y102038D01*
X52050Y102012D01*
X52168Y101983D01*
X52286Y101951D01*
X52403Y101914D01*
X52518Y101874D01*
X52632Y101830D01*
X52744Y101782D01*
X52855Y101731D01*
X52964Y101676D01*
X53072Y101618D01*
X53177Y101556D01*
X53280Y101491D01*
X53382Y101423D01*
X53481Y101351D01*
X53577Y101277D01*
X53672Y101199D01*
X53763Y101118D01*
X53853Y101035D01*
X53939Y100949D01*
X54022Y100859D01*
X54103Y100768D01*
X54181Y100673D01*
X54255Y100577D01*
X54327Y100478D01*
X54395Y100376D01*
X54460Y100273D01*
X54522Y100168D01*
X54580Y100060D01*
X54635Y99951D01*
X54686Y99840D01*
X54734Y99728D01*
X54778Y99614D01*
X54818Y99499D01*
X54855Y99382D01*
X54887Y99264D01*
X54916Y99146D01*
X54942Y99026D01*
X54963Y98906D01*
X54981Y98785D01*
X54994Y98664D01*
X55004Y98542D01*
X55010Y98420D01*
X55012Y98298D01*
X55010Y98176D01*
X55004Y98054D01*
X54994Y97932D01*
X54981Y97811D01*
X54963Y97690D01*
X54942Y97570D01*
X54916Y97450D01*
X54887Y97332D01*
X54855Y97214D01*
X54818Y97097D01*
X54778Y96982D01*
X54734Y96868D01*
X54686Y96756D01*
X54635Y96645D01*
X54580Y96536D01*
X54522Y96428D01*
X54460Y96323D01*
X54395Y96220D01*
X54327Y96118D01*
X54255Y96019D01*
X54181Y95923D01*
X54103Y95828D01*
X54022Y95737D01*
X53939Y95647D01*
X53853Y95561D01*
X53763Y95478D01*
X53672Y95397D01*
X53577Y95319D01*
X53481Y95245D01*
X53382Y95173D01*
X53280Y95105D01*
X53177Y95040D01*
X53072Y94978D01*
X52964Y94920D01*
X52855Y94865D01*
X52744Y94814D01*
X52632Y94766D01*
X52518Y94722D01*
X52403Y94682D01*
X52286Y94645D01*
X52168Y94613D01*
X52050Y94584D01*
X51930Y94558D01*
X51810Y94537D01*
X51689Y94519D01*
X51568Y94506D01*
X51446Y94496D01*
X51324Y94490D01*
X51202Y94488D01*
D10*
X103929Y118331D02*
X106018Y118331D01*
X103929Y118331D02*
X103840Y118333D01*
X103752Y118339D01*
X103664Y118348D01*
X103576Y118361D01*
X103489Y118378D01*
X103403Y118398D01*
X103318Y118423D01*
X103233Y118450D01*
X103150Y118482D01*
X103069Y118516D01*
X102989Y118555D01*
X102911Y118596D01*
X102834Y118641D01*
X102760Y118689D01*
X102687Y118740D01*
X102617Y118794D01*
X102550Y118852D01*
X102484Y118912D01*
X102422Y118974D01*
X102362Y119040D01*
X102304Y119107D01*
X102250Y119177D01*
X102199Y119250D01*
X102151Y119324D01*
X102106Y119401D01*
X102065Y119479D01*
X102026Y119559D01*
X101992Y119640D01*
X101960Y119723D01*
X101933Y119808D01*
X101908Y119893D01*
X101888Y119979D01*
X101871Y120066D01*
X101858Y120154D01*
X101849Y120242D01*
X101843Y120330D01*
X101841Y120419D01*
X101841Y125641D01*
X101843Y125732D01*
X101849Y125823D01*
X101859Y125914D01*
X101873Y126004D01*
X101890Y126093D01*
X101912Y126181D01*
X101938Y126269D01*
X101967Y126355D01*
X102000Y126440D01*
X102037Y126523D01*
X102077Y126605D01*
X102121Y126685D01*
X102168Y126763D01*
X102219Y126839D01*
X102272Y126912D01*
X102329Y126983D01*
X102390Y127052D01*
X102453Y127117D01*
X102518Y127180D01*
X102587Y127240D01*
X102658Y127298D01*
X102731Y127351D01*
X102807Y127402D01*
X102885Y127449D01*
X102965Y127493D01*
X103047Y127533D01*
X103130Y127570D01*
X103215Y127603D01*
X103301Y127632D01*
X103389Y127658D01*
X103477Y127680D01*
X103566Y127697D01*
X103656Y127711D01*
X103747Y127721D01*
X103838Y127727D01*
X103929Y127729D01*
X106018Y127729D01*
X111575Y122508D02*
X114708Y122508D01*
X111575Y122508D02*
X111486Y122510D01*
X111398Y122516D01*
X111310Y122525D01*
X111222Y122538D01*
X111135Y122555D01*
X111049Y122575D01*
X110964Y122600D01*
X110879Y122627D01*
X110796Y122659D01*
X110715Y122693D01*
X110635Y122732D01*
X110557Y122773D01*
X110480Y122818D01*
X110406Y122866D01*
X110333Y122917D01*
X110263Y122971D01*
X110196Y123029D01*
X110130Y123089D01*
X110068Y123151D01*
X110008Y123217D01*
X109950Y123284D01*
X109896Y123354D01*
X109845Y123427D01*
X109797Y123501D01*
X109752Y123578D01*
X109711Y123656D01*
X109672Y123736D01*
X109638Y123817D01*
X109606Y123900D01*
X109579Y123985D01*
X109554Y124070D01*
X109534Y124156D01*
X109517Y124243D01*
X109504Y124331D01*
X109495Y124419D01*
X109489Y124507D01*
X109487Y124596D01*
X109487Y125118D01*
X109486Y125118D02*
X109488Y125219D01*
X109494Y125320D01*
X109504Y125421D01*
X109517Y125521D01*
X109535Y125621D01*
X109556Y125720D01*
X109582Y125818D01*
X109611Y125915D01*
X109643Y126011D01*
X109680Y126105D01*
X109720Y126198D01*
X109764Y126290D01*
X109811Y126379D01*
X109862Y126467D01*
X109916Y126553D01*
X109973Y126636D01*
X110033Y126718D01*
X110097Y126796D01*
X110163Y126873D01*
X110233Y126946D01*
X110305Y127017D01*
X110380Y127085D01*
X110458Y127150D01*
X110538Y127212D01*
X110620Y127271D01*
X110705Y127327D01*
X110792Y127379D01*
X110880Y127428D01*
X110971Y127474D01*
X111063Y127515D01*
X111157Y127554D01*
X111252Y127588D01*
X111348Y127619D01*
X111446Y127646D01*
X111544Y127670D01*
X111644Y127689D01*
X111744Y127705D01*
X111844Y127717D01*
X111945Y127725D01*
X112046Y127729D01*
X112148Y127729D01*
X112249Y127725D01*
X112350Y127717D01*
X112450Y127705D01*
X112550Y127689D01*
X112650Y127670D01*
X112748Y127646D01*
X112846Y127619D01*
X112942Y127588D01*
X113037Y127554D01*
X113131Y127515D01*
X113223Y127474D01*
X113314Y127428D01*
X113403Y127379D01*
X113489Y127327D01*
X113574Y127271D01*
X113656Y127212D01*
X113736Y127150D01*
X113814Y127085D01*
X113889Y127017D01*
X113961Y126946D01*
X114031Y126873D01*
X114097Y126796D01*
X114161Y126718D01*
X114221Y126636D01*
X114278Y126553D01*
X114332Y126467D01*
X114383Y126379D01*
X114430Y126290D01*
X114474Y126198D01*
X114514Y126105D01*
X114551Y126011D01*
X114583Y125915D01*
X114612Y125818D01*
X114638Y125720D01*
X114659Y125621D01*
X114677Y125521D01*
X114690Y125421D01*
X114700Y125320D01*
X114706Y125219D01*
X114708Y125118D01*
X114708Y122508D01*
X114706Y122382D01*
X114700Y122256D01*
X114691Y122130D01*
X114678Y122005D01*
X114660Y121880D01*
X114640Y121755D01*
X114615Y121631D01*
X114587Y121508D01*
X114555Y121386D01*
X114519Y121265D01*
X114480Y121145D01*
X114437Y121027D01*
X114390Y120910D01*
X114340Y120794D01*
X114286Y120679D01*
X114230Y120567D01*
X114169Y120456D01*
X114106Y120347D01*
X114039Y120240D01*
X113969Y120135D01*
X113895Y120032D01*
X113819Y119932D01*
X113740Y119834D01*
X113658Y119738D01*
X113572Y119645D01*
X113485Y119554D01*
X113394Y119467D01*
X113301Y119381D01*
X113205Y119299D01*
X113107Y119220D01*
X113007Y119144D01*
X112904Y119070D01*
X112799Y119000D01*
X112692Y118933D01*
X112583Y118870D01*
X112472Y118809D01*
X112360Y118753D01*
X112245Y118699D01*
X112129Y118649D01*
X112012Y118602D01*
X111894Y118559D01*
X111774Y118520D01*
X111653Y118484D01*
X111531Y118452D01*
X111408Y118424D01*
X111284Y118399D01*
X111159Y118379D01*
X111034Y118361D01*
X110909Y118348D01*
X110783Y118339D01*
X110657Y118333D01*
X110531Y118331D01*
M02*
