G04 EAGLE Gerber RS-274X export*
G75*
%MOMM*%
%FSLAX34Y34*%
%LPD*%
%INSolderpaste Top*%
%IPPOS*%
%AMOC8*
5,1,8,0,0,1.08239X$1,22.5*%
G01*
%ADD10R,1.300000X1.600000*%
%ADD11R,1.600000X1.300000*%
%ADD12R,1.475000X0.600000*%
%ADD13R,0.600000X1.475000*%
%ADD14R,1.200000X0.600000*%
%ADD15R,2.790000X0.740000*%
%ADD16R,1.371600X0.457200*%
%ADD17R,1.422400X1.549400*%
%ADD18R,1.651000X1.295400*%
%ADD19R,1.905000X1.803400*%
%ADD20R,1.905000X0.990600*%


D10*
X38260Y176530D03*
X58260Y176530D03*
D11*
X81280Y63340D03*
X81280Y43340D03*
X163830Y181770D03*
X163830Y201770D03*
X138430Y181770D03*
X138430Y201770D03*
X307340Y125890D03*
X307340Y145890D03*
X332740Y125890D03*
X332740Y145890D03*
X163830Y140810D03*
X163830Y120810D03*
X138430Y140810D03*
X138430Y120810D03*
D12*
X192570Y181670D03*
X192570Y173670D03*
X192570Y165670D03*
X192570Y157670D03*
X192570Y149670D03*
X192570Y141670D03*
X192570Y133670D03*
X192570Y125670D03*
D13*
X206950Y111290D03*
X214950Y111290D03*
X222950Y111290D03*
X230950Y111290D03*
X238950Y111290D03*
X246950Y111290D03*
X254950Y111290D03*
X262950Y111290D03*
D12*
X277330Y125670D03*
X277330Y133670D03*
X277330Y141670D03*
X277330Y149670D03*
X277330Y157670D03*
X277330Y165670D03*
X277330Y173670D03*
X277330Y181670D03*
D13*
X262950Y196050D03*
X254950Y196050D03*
X246950Y196050D03*
X238950Y196050D03*
X230950Y196050D03*
X222950Y196050D03*
X214950Y196050D03*
X206950Y196050D03*
D14*
X114500Y62840D03*
X114500Y53340D03*
X114500Y43840D03*
X139500Y43840D03*
X139500Y62840D03*
D15*
X60960Y262890D03*
X101660Y262890D03*
X60960Y250190D03*
X101660Y250190D03*
X60960Y237490D03*
X101660Y237490D03*
X60960Y224790D03*
X101660Y224790D03*
X60960Y212090D03*
X101660Y212090D03*
D16*
X51202Y63800D03*
X51202Y57300D03*
X51202Y50800D03*
X51202Y44300D03*
X51202Y37800D03*
D17*
X50352Y75675D03*
X50352Y25925D03*
D18*
X24602Y84550D03*
X24602Y17050D03*
D19*
X24602Y62300D03*
D20*
X24602Y35306D03*
D11*
X107950Y157320D03*
X107950Y137320D03*
M02*
